<svg width="20" height="20" viewBox="0 0 20 20" fill="none" xmlns="http://www.w3.org/2000/svg">
<path d="M16.575 6.1169C16.5 6.3919 16.1667 7.08357 15.6 7.7419C15.225 14.9752 8.20833 17.3252 3.4 14.9002C2.74167 14.0252 5.775 14.3836 6.88333 12.7086C2.69167 10.5669 3.025 4.8419 3.86667 5.07523C5.84167 7.73357 9.025 7.97523 9.54167 7.73357C9.54167 7.12523 9.28333 5.80023 10.7167 4.6919C11.5417 4.10023 13.2667 3.57523 14.825 5.2669C15.0917 5.4419 15.475 5.5169 16.05 5.3919C16.3917 5.2169 16.8417 5.33357 16.6083 5.9419L16.575 6.1169Z" stroke="white" stroke-width="1.66667" stroke-linecap="round" stroke-linejoin="round"/>
</svg>
