<svg width="20" height="20" viewBox="0 0 20 20" fill="none" xmlns="http://www.w3.org/2000/svg">
<path d="M10 3.33301C10.7125 3.33301 11.4433 3.35134 12.1517 3.38134L12.9883 3.42134L13.7892 3.46884L14.5392 3.51967L15.2242 3.57301C15.9677 3.62958 16.6673 3.9467 17.2 4.46851C17.7326 4.99032 18.064 5.68334 18.1358 6.42551L18.1692 6.77967L18.2317 7.53801C18.29 8.32384 18.3333 9.18051 18.3333 9.99967C18.3333 10.8188 18.29 11.6755 18.2317 12.4613L18.1692 13.2197L18.1358 13.5738C18.064 14.3161 17.7324 15.0093 17.1996 15.5311C16.6668 16.0529 15.967 16.37 15.2233 16.4263L14.54 16.4788L13.79 16.5305L12.9883 16.578L12.1517 16.618C11.4349 16.6491 10.7175 16.6652 10 16.6663C9.28252 16.6652 8.56514 16.6491 7.84833 16.618L7.01166 16.578L6.21083 16.5305L5.46083 16.4788L4.77583 16.4263C4.03234 16.3698 3.33266 16.0526 2.80003 15.5308C2.2674 15.009 1.93599 14.316 1.86416 13.5738L1.83083 13.2197L1.76833 12.4613C1.70486 11.6423 1.67095 10.8212 1.66666 9.99967C1.66666 9.18051 1.71 8.32384 1.76833 7.53801L1.83083 6.77967L1.86416 6.42551C1.93596 5.68347 2.26726 4.99055 2.79972 4.46876C3.33218 3.94697 4.03166 3.62977 4.775 3.57301L5.45916 3.51967L6.20916 3.46884L7.01083 3.42134L7.8475 3.38134C8.56458 3.35028 9.28224 3.33417 10 3.33301ZM10 4.99967C9.3125 4.99967 8.605 5.01801 7.91666 5.04634L7.10166 5.08551L6.31916 5.13134L5.58416 5.18134L4.91083 5.23384C4.55683 5.25862 4.22307 5.40811 3.96888 5.65574C3.71469 5.90337 3.55653 6.2331 3.5225 6.58634C3.425 7.59384 3.33333 8.84801 3.33333 9.99967C3.33333 11.1513 3.425 12.4055 3.5225 13.413C3.59333 14.1397 4.17 14.7047 4.91083 14.7655L5.58416 14.8172L6.31916 14.8672L7.10166 14.9138L7.91666 14.953C8.605 14.9813 9.3125 14.9997 10 14.9997C10.6875 14.9997 11.395 14.9813 12.0833 14.953L12.8983 14.9138L13.6808 14.868L14.4158 14.818L15.0892 14.7655C15.4432 14.7407 15.7769 14.5912 16.0311 14.3436C16.2853 14.096 16.4435 13.7662 16.4775 13.413C16.575 12.4055 16.6667 11.1513 16.6667 9.99967C16.6667 8.84801 16.575 7.59384 16.4775 6.58634C16.4435 6.2331 16.2853 5.90337 16.0311 5.65574C15.7769 5.40811 15.4432 5.25862 15.0892 5.23384L14.4158 5.18217L13.6808 5.13217L12.8983 5.08551L12.0833 5.04634C11.3893 5.01655 10.6947 5.00099 10 4.99967ZM8.33333 7.97884C8.33328 7.89739 8.35312 7.81717 8.39114 7.74514C8.42915 7.67311 8.48419 7.61145 8.55146 7.56554C8.61873 7.51962 8.6962 7.49083 8.77713 7.48168C8.85806 7.47253 8.94 7.48328 9.01583 7.51301L9.08333 7.54634L12.5833 9.56634C12.653 9.60655 12.712 9.663 12.7552 9.73087C12.7984 9.79875 12.8246 9.87605 12.8316 9.95621C12.8385 10.0364 12.826 10.117 12.7951 10.1913C12.7643 10.2656 12.7159 10.3314 12.6542 10.383L12.5833 10.433L9.08333 12.4538C9.0128 12.4947 8.93335 12.5177 8.85191 12.5208C8.77047 12.5239 8.68949 12.5071 8.61604 12.4717C8.5426 12.4364 8.4789 12.3837 8.43049 12.3181C8.38209 12.2525 8.35045 12.1761 8.33833 12.0955L8.33333 12.0205V7.97884Z" fill="white"/>
</svg>
