<svg width="24" height="24" viewBox="0 0 24 24" fill="none" xmlns="http://www.w3.org/2000/svg">
<path fill-rule="evenodd" clip-rule="evenodd" d="M17.9909 6.0096L5.39895 10.5626L9.59394 12.9906L13.2929 9.2906C13.4806 9.10309 13.735 8.99781 14.0003 8.9979C14.2656 8.99799 14.5199 9.10346 14.7074 9.2911C14.895 9.47874 15.0002 9.73319 15.0001 9.99846C15.0001 10.2637 14.8946 10.5181 14.7069 10.7056L11.0069 14.4056L13.4369 18.5996L17.9909 6.0096ZM18.3139 3.7656C19.5089 3.3326 20.6669 4.4906 20.2339 5.6856L14.9519 20.2906C14.5179 21.4886 12.8819 21.6346 12.2429 20.5316L9.02594 14.9736L3.46794 11.7566C2.36494 11.1176 2.51095 9.4816 3.70895 9.0476L18.3139 3.7656Z" fill="white"/>
</svg>
